<?xml version="1.0" encoding="UTF-8"?>
<svg xmlns="http://www.w3.org/2000/svg" viewBox="50 50 692 529.83">
    <defs>
        <style>.cls-1{fill:#7f606a;}.cls-2{fill:#c8b2b7;}.cls-3{font-family:GoudyOldStyleT-Regular, 'Goudy Old Style';font-size:40px;}.cls-3,.cls-4,.cls-5{fill:#fff;}.cls-6{fill:none;stroke:#fff;stroke-miterlimit:10;stroke-width:2px;}.cls-4{font-family:TsukuARdGothic-Regular-83pv-RKSJ-H, 'Tsukushi A Round Gothic';}.cls-4,.cls-5{font-size:52px;}.cls-5{font-family:YuKyo-Medium-83pv-RKSJ-H, YuKyokasho;}</style>
    </defs>
    <g id="Layer_1">
        <g>
            <text class="cls-5" transform="translate(251.22 469.88) rotate(38.19)">
                <tspan x="0" y="0">艾</tspan>
            </text>
            <text class="cls-5" transform="translate(326.86 518.71) rotate(12.44)">
                <tspan x="0" y="0">伊</tspan>
            </text>
            <text class="cls-5" transform="translate(417.07 529.36) rotate(-14.07)">
                <tspan x="0" y="0">蒔</tspan>
            </text>
            <text class="cls-5" transform="translate(501.69 499.13) rotate(-39.69)">
                <tspan x="0" y="0">花</tspan>
            </text>
            <text class="cls-4" transform="translate(557.91 442.57) rotate(-56.29)">
                <tspan x="0" y="0"></tspan>
            </text>
        </g>
        <text class="cls-3" transform="translate(215.78 287.86) rotate(-76.58)">
            <tspan x="0" y="0">A</tspan>
        </text>
        <text class="cls-3" transform="translate(224.59 255.37) rotate(-68.02)">
            <tspan x="0" y="0">I</tspan>
        </text>
        <text class="cls-3" transform="translate(232.28 236.7) rotate(-60)">
            <tspan x="0" y="0">Y</tspan>
        </text>
        <text class="cls-3" transform="translate(248.24 210.75) rotate(-52.02)">
            <tspan x="0" y="0">I</tspan>
        </text>
        <text class="cls-3" transform="translate(261.16 194.94) rotate(-46.1)">
            <tspan x="0" y="0"></tspan>
        </text>
        <text class="cls-3" transform="translate(273.16 182.63) rotate(-39.03)">
            <tspan x="0" y="0">F</tspan>
        </text>
        <text class="cls-3" transform="translate(294.96 165.6) rotate(-30.15)">
            <tspan x="0" y="0">L</tspan>
        </text>
        <text class="cls-3" transform="translate(319.64 151.46) rotate(-19.64)">
            <tspan x="0" y="0">O</tspan>
        </text>
        <text class="cls-3" transform="translate(355.77 139.54) rotate(-8.37)">
            <tspan x="0" y="0">R</tspan>
        </text>
        <text class="cls-3" transform="translate(388.55 135.33) rotate(2.01)">
            <tspan x="0" y="0">A</tspan>
        </text>
        <text class="cls-3" transform="translate(422.04 137.3) rotate(11.8)">
            <tspan x="0" y="0">L</tspan>
        </text>
        <text class="cls-3" transform="translate(450.16 144.02) rotate(19.13)">
            <tspan x="0" y="0"></tspan>
        </text>
        <text class="cls-3" transform="translate(466.33 149.41) rotate(27.64)">
            <tspan x="0" y="0">D</tspan>
        </text>
        <text class="cls-3" transform="translate(498.19 167.13) rotate(38.14)">
            <tspan x="0" y="0">E</tspan>
        </text>
        <text class="cls-3" transform="translate(521.62 186.39) rotate(47.13)">
            <tspan x="0" y="0">S</tspan>
        </text>
        <text class="cls-3" transform="translate(539.58 206.76) rotate(54.58)">
            <tspan x="0" y="0">I</tspan>
        </text>
        <text class="cls-3" transform="translate(551.35 223.09) rotate(63.61)">
            <tspan x="0" y="0">G</tspan>
        </text>
        <text class="cls-3" transform="translate(567.09 256.4) rotate(75.21)">
            <tspan x="0" y="0">N</tspan>
        </text>
        <path class="cls-6" d="M245.03,441.04c-28.22-33.62-45.21-76.97-45.21-124.29" />
        <path class="cls-6" d="M545.34,441.04c28.22-33.62,45.21-76.97,45.21-124.29" />
    </g>
    <g id="Layer_2">
        <circle class="cls-2" cx="393.25" cy="314.91" r="246.25" />
        <g>
            <path class="cls-1"
                d="M373.75,198.98c.08,.11,.16,.23,.14,.26-.43,1,.36,1.34,1.19,1.67,2.99,1.19,3.7,3.79,3.98,6.54,.33,3.21,.51,6.43,.61,9.65,.02,.8-.45,1.66-.82,2.43-.7,1.48-1.05,2.96-.59,4.6,.19,.67,.43,.79,1.09,.63,3.17-.74,5.08,.3,6.43,3.31,.18,.4,.78,.8,1.23,.85,2,.22,3.79,1.74,4.11,3.69,.04,.24-.06,.56-.19,.77-.44,.69-.93,1.35-1.42,2.05,0,0,.04,.11,.09,.12,2.74,.38,5.52,1.06,8.01-.83,.9-.68,1.69-1.24,2.58,.04,.2,.29,.79,.41,1.2,.41,1.24,0,2.48-.12,3.72-.14,.23,0,.62,.21,.66,.39,.48,1.88,2.08,2.88,3.24,4.22,1.27,1.47,2.16,3.05,1.46,5.11-.32,.94-1.61,1.61-2.61,1.45-.85-.14-1.75-.04-2.62,.05-1.4,.14-2.8,.36-4.34,.56-.02,.19-.03,.7-.14,1.18-.7,2.95-2.57,4.47-5.68,4.64-.12,0-.24,0-.36,.03-3.48,.93-5.91-.74-7.97-3.25-1.14-1.38-2.64-2.22-4.28-2.71-1.8-.54-3.37-1.23-4.58-2.75-.73-.91-1.79-1.57-2.69-2.34-1.03,1.04-1.45,.85-2.15-.46-.82-1.55-1.35-3.35-3.13-4.22-1.34-.65-1.56-.5-1.73,.97-.25,2.06-.22,4.15-1.22,6.11-.61,1.2-.66,2.68-1.14,3.96-1.53,4.05-4.08,7.28-7.97,9.32-1.37,.72-2.74,1.47-4.18,2.04-3.7,1.47-6.54,3.93-8.65,7.27-2.04,3.24-3.89,6.59-4.74,10.37-.99,4.42-.78,8.72,1.26,12.86,3.43,6.98,8.3,12.7,14.58,17.31,6.49,4.77,12.5,10.14,17.85,16.14,3.62,4.06,6.75,8.61,9.73,13.18,3.4,5.2,6.48,10.62,9.53,16.04,3.46,6.14,5.11,12.98,7.13,19.66,.17,.55,.36,1.18,.74,1.57,2.11,2.14,2.82,4.82,3.1,7.67,.18,1.82,.27,3.64,.42,5.84,.41-.87,.61-1.49,.97-2.01,1.16-1.69,2.38-3.34,3.55-5.02,.63-.9,1.45-1.76,1.8-2.77,.58-1.69,.94-3.47,1.23-5.24,1.14-6.97,4.68-12.67,9.39-17.7,2.51-2.68,5.42-4.98,7.87-7.7,3.87-4.3,4.64-9.43,3.34-14.97-.82-3.49-2.85-6.39-4.68-9.37-.15-.25-.99-.4-1.21-.23-1.07,.86-2.61,1.27-2.98,2.9-.05,.22-.72,.32-1.11,.45-.7,.24-1.57,.29-2.06,.75-2,1.83-4.6,2.26-6.97,3.24-.3,.13-.86,.04-1.1-.17-.62-.56-1.21-.48-1.87-.17-1.97,.92-4.05,.91-6.07,.4-2.77-.69-5.46-.38-8.1,.37-1.46,.41-2.62,.19-3.76-.64-1.42-1.04-2.85-1.43-4.47-.37-.31,.2-.95,.14-1.32-.04-.99-.49-1.87-1.22-2.88-1.63-.65-.27-1.47-.26-2.19-.17-1.9,.24-2.84-.31-3.33-2.16-.17-.64-.27-1.3-.42-2.05-3.07,.42-4.38-1.47-5.3-3.93-.11-.3-.38-.67-.65-.76-1.98-.6-2.79-1.93-2.93-3.96-.07-1.05-.64-2.06-1.01-3.15-.05,.05,.03-.06,.06-.05,1.74,.66,3.23,.3,4.69-.85,.82-.65,1.93-.94,2.83-1.51,.58-.37,1.03-.94,1.51-1.45,.54-.58,1.02-1.2,1.55-1.79,1.18-1.31,2.67-1.38,4.29-.88l.1-.38c-1.7-.95-3.41-1.9-5.1-2.87-.36-.21-.89-.4-1.01-.73-.62-1.68-2.19-2.36-3.45-3.3-1.93-1.45-4.04-2.66-5.92-3.87l-1.75,.76c0-1.62-.12-3.09,.05-4.52,.08-.68,.58-1.5,1.15-1.9,.98-.7,1.31-1.49,1.18-2.63-.18-1.56,.23-2.98,1.01-4.34,.57-.99,.99-2.07,1.44-3.13,.11-.26,.17-.7,.03-.88-.68-.89-.22-1.49,.53-1.79,2.88-1.16,4.08-3.88,5.89-6.05,1.09-1.3,2-2.97,4.11-2.9,.15,0,.36-.2,.46-.35,1.4-2.11,3.65-2.95,5.82-3.95,1.07-.5,2-1.32,3.08-1.76,.76-.31,1.7-.37,2.53-.27,.84,.11,1.74,.4,2.43,.88,1.4,.97,2.84,.93,4.32,.49,1.41-.42,2.76-.87,4.28-.49,.99,.24,1.88-.1,2.74-.8,1.28-1.04,2.96-1.59,3.85-3.12,.09-.15,.31-.29,.49-.32,2.25-.42,4.32-1.84,6.76-1.19,.22,.06,.52-.05,.75-.15,.29-.13,.53-.44,.82-.47,1.52-.2,2.67-1.01,3.77-2.01,1.65-1.5,3.61-1.58,5.56-.74,1.48,.64,2.98,.77,4.55,.67,1.47-.1,2.95-.27,4.41-.2,1.36,.07,2.47,.77,3.32,1.89,.2,.27,.74,.57,.99,.48,2.92-1.01,4.93,.61,6.78,2.41,1,.97,1.95,1.9,3.15,2.64,.82,.51,1.46,1.48,1.88,2.38,.34,.72,.74,1.01,1.44,1.14,3.37,.59,3.86,1.32,3.13,4.65-.05,.23-.12,.45-.19,.73,.4,.15,.77,.29,1.13,.43,1.29,.49,2.11,1.23,2.05,2.82-.05,1.24,.04,2.53,1.24,3.46,.26,.2,.15,1.08-.01,1.58-.25,.74-.32,1.26,.35,1.87,.98,.89,1.73,1.98,1.8,3.39,.02,.37-.03,.75-.06,1.12-.02,.26-.17,.7-.08,.76,1.07,.63,.33,1.26-.03,1.77-.82,1.17-1.77,2.26-2.61,3.42-.72,.99-1.35,2.05-2.08,3.03-.32,.43-.74,.85-1.2,1.11-2.27,1.28-4.57,2.5-6.86,3.73-.45,.24-.88,.57-1.36,.7-3.07,.86-4.85,3.24-6.7,5.56-.94,1.17-2,2.25-2.97,3.41-.2,.24-.32,.62-.33,.94-.05,1.44-.41,2.64-1.58,3.68-1.07,.95-1.81,2.25-2.75,3.35-.48,.56-1.08,1.02-1.61,1.54-.75,.73-1.48,1.5-2.25,2.2-.49,.44-1.06,.79-1.71,1.27,.35,.71,.74,1.51,1.14,2.31,1.39,2.8,2.81,5.58,4.13,8.41,.32,.69,.34,1.54,.43,2.33,.65,5.5,0,10.69-3.92,14.98-2.25,2.46-4.72,4.74-6.92,7.24-1.97,2.23-3.67,4.7-5.57,6.99-2.65,3.2-3.72,7.12-5.16,10.88-.13,.33-.11,.72-.21,1.44,2.07-1.68,3.92-3.06,5.62-4.58,5.33-4.77,10.72-9.5,17.42-12.23,2.67-1.09,4.1-2.9,5.3-5.21,1.18-2.29,2.35-4.58,3.43-6.71-1.3-1.16-2.71-2.12-3.74-3.4-2.8-3.5-2.1-9.01,3.12-11.03,.24-.09,.9,.37,1.07,.72,.8,1.67,1.61,3.28,3.55,4.2,.48-1.15,1.34-2.3,1.33-3.44-.01-.9-.92-2.03-1.75-2.61-.91-.63-2.37-2.26-2.33-3.44,.04-1.23,.78-2.16,2.24-2.54,1.9-.5,3.81-1.09,5.93-.47,.93-1.96,1.87-3.94,2.75-5.78-1.29-.06-2.66,.08-3.94-.21-2.95-.68-5.27-3.17-4.33-7.36,.4-1.76,.77-3.55,1.45-5.22,.72-1.77,2.09-3.19,3.78-4.08,1.74-.91,3.66-.94,5.51-.17,2.42,1,2.51,1.1,4.67,4.42,.58-1.77,1.16-3.42,1.64-5.1,.08-.3-.22-.77-.45-1.09-1.89-2.72-2.79-6.5-.86-9.54,1.31-2.07,2.58-2.53,4.92-1.68,.46,.17,.97,.23,1.7,.39v-7.85c-1.78-.51-3.46-.82-5.02-1.47-2.35-.98-3.26-3.29-2.95-5.55,.04-.3,.15-.67,.37-.85,1.3-1.15,2.54-2.42,3.99-3.33,1.6-1,3.33-.68,5.08,.53-.02-.43,.06-.78-.06-.86-1.1-.73-.89-1.87-.69-2.81,.26-1.21,.77-2.39,1.33-3.51,.26-.52,.82-.98,1.35-1.26,.79-.42,.75-.81,.2-1.36-.34-.34-.67-.68-1-1.03-1-1.07-1.13-2.39-.41-3.51,1.01-1.55,2.25-2.96,3.51-4.33,.64-.69,1.73-.68,2.26,0,1.2,1.54,2.48,3.09,2.47,5.27-.01,2.96-2.23,3.82-4.63,3.69-.31-.02-.62-.03-1.21-.06,.34,.41,.48,.72,.73,.86,.71,.41,1.43,.84,2.2,1.11,2.32,.81,3.09,4.77,1.34,6.68-1.32,1.43-2.63,2.85-4.81,2.94-.22,0-.61,.87-.57,1.3,.12,1.28,.42,2.54,.6,3.59,2.11-.28,4.32-.6,6.54-.82,.54-.05,1.29,.06,1.65,.4,1.2,1.14,2.33,2.38,3.37,3.67,.49,.61-.33,3.16-1.16,3.58-1.43,.73-2.98,1.23-4.42,1.96-2.75,1.38-5.66,2.01-8.83,2.26,.23,.13,.46,.39,.68,.38,3.49-.07,4.44,2.16,5.3,4.54,.84,2.34-.03,5.03-1.88,6.57-.17,.14-.36,.29-.47,.48-1.83,2.88-4.52,3.64-7.61,2.14-.25-.12-.5-.24-.84-.4-1.28,3.29-1.77,6.87-4.34,9.76,1.53-.43,2.79-.8,4.07-1.14,2.9-.79,5.45-.26,7.36,2.19,1.21,1.55,1.63,4.16-.28,5.74-1.22,1.01-2.2,2.3-3.28,3.47-.62,.67-1.27,.83-2.23,.71-1.15-.15-2.49-.17-3.5,.3-2.98,1.37-5.24-.22-7.8-1.36-.71,1.49-1.48,3.1-2.3,4.79,.5,.05,.83,.07,1.16,.12,2.14,.31,3.1,1.74,2.45,3.81-.92,2.94-3.09,4.44-6.47,3.96-.44,1.36-.93,2.74-1.33,4.15-.08,.29,.15,.66,.21,.99,.25,1.27,.68,2.54,.68,3.81,0,1.73-1.74,3.17-3.6,3.42-.41,.06-.95,.39-1.11,.75-1.17,2.66-2.26,5.36-3.53,8.4,1.18-.95,2.13-1.65,3.01-2.42,2.45-2.17,4.98-4.28,7.28-6.6,2.19-2.2,4.2-4.6,6.19-7,2.11-2.54,4.35-4.93,7.33-6.43,3.72-1.87,7.63-2.26,11.51-.59,3.32,1.44,5.32,4.06,5.89,7.7,.07,.46,.21,.92,.32,1.38,3.78-.79,5.67,.37,6.62,4.19,.75,3.01,1.04,6.09-.49,8.95-.59,1.1-1.55,2.11-2.57,2.84-.67,.48-1.75,.45-2.65,.56-4.18,.49-7.02-1.35-8.74-4.98-.67-1.42-.89-3.13-1.01-4.73-.2-2.48,1.25-4.33,3.16-5.54,.92-.58,2.41-.23,3.72-.31,.63-3.1-2.39-7.73-6-8.68-4.97-1.3-9.18,.17-12.62,3.67-3.13,3.18-5.89,6.73-8.88,10.05-1.82,2.02-3.76,3.92-5.66,5.87-.3,.31-.65,.56-.98,.84l.12,.31c.46,0,.92,.05,1.37,0,2.87-.35,5.78,1.99,6.77,4.49,1.27,3.23,2.14,6.52,1.78,9.96-.3,2.81-.98,5.59-1.64,8.35-1.37,5.72-3.49,11.17-6.18,16.41-2.79,5.45-6.73,9.93-11.43,13.82-7.79,6.44-16.12,12.08-24.84,17.18-6.68,3.91-13.72,6.99-20.86,9.93-5.39,2.22-10.78,4.4-16.51,5.55-2.2,.44-4.46,.63-6.69,.89-1.77,.2-3.54,.43-5.31,.46-1.95,.04-3.56-1.64-3.37-3.37,.03-.31,.35-.78,.6-.83,2.28-.43,3.7-2.23,5.52-3.39,2.08-1.32,2.88-3.54,4.03-5.5,1.46-2.49,2.92-5.02,4.06-7.67,1.07-2.51,1.09-5.23,.72-7.95-.23-1.69-.16-3.42-.31-5.12-.27-3.11-.58-6.23-.93-9.33-.43-3.75-.65-7.46,.68-11.12,.68-1.88,.92-3.94,1.72-5.75,1.69-3.8,2.86-5.89,7.61-8.04l-2.95-3.38c-1,1.28-1.93,2.51-2.91,3.71-2.07,2.51-4.78,3.75-8,3.92-.08,0-.16,0-.24,0-3.21,.46-5.2-.9-6.33-3.94-.48-1.3-1.47-2.44-2.31-3.59-.62-.85-.7-1.65,.04-2.35,1.92-1.82,4.13-3.2,6.85-3.2,1.89,0,3.77,.47,5.66,.55,.69,.03,1.41-.44,2.15-.69-.68-1.79-2.21-1.58-3.31-1.88-2.87-.79-4.92-2.52-6.12-5.1-.58-1.25-1.29-2.22-2.33-3.05-.68-.54-1.3-1.16-2.14-1.93-.24,.8-.43,1.42-.61,2.04-.83,2.81-2.07,5.34-4.56,7.08-2.65,1.86-6.85,1.86-9.31-.23-2.81-2.38-3.12-6.86-.46-9.42,.7-.68,.71-2.07,1.09-3.32-3.18,.83-6.06,.83-8.56-1.2-2.41-1.95-3.9-4.3-2.9-7.68-1.8-.72-3.64-.65-5.48-.3-.23,.04-.47,.43-.57,.71-.55,1.56-.99,3.17-1.61,4.71-1.05,2.63-3.41,3.63-5.91,4.11-2.45,.47-4.95,.05-7.23-.97-2.55-1.14-3.07-2.96-1.92-5.52-.36-.91-.75-1.72-1-2.58-.86-2.93,1.23-4.4,3.11-5.87,.79-.62,1.79-.96,2.82-1.48-.48-.15-1.01-.51-1.49-.44-2.48,.35-4.63-.27-6.52-2-.98,1.33-2.08,2.22-3.77,2.51-2.32,.4-4.16-.37-5.78-1.83-.38-.34-.61-1.17-.49-1.68,.35-1.47,.46-2.16,.98-3.73,.09-.48,.4-.73,.49-.92l.35-.15c.1-.14,.21-.31,.33-.47,.11-.16,.24-.31,.51-.65-1.89-.77-3.67-1.5-5.49-2.24-.34,.69-.64,1.23-.9,1.79-1.53,3.32-6.41,4.41-8.75,3.51-2.5-.96-2.46-1.77-1.34-3.63,1.04-1.72,2.6-2.48,4.54-2.65-3.73-.47-7.45-.94-11.19-1.42-.89,3.87-4.86,4.28-7.28,3.26-1.69-.71-2.16-2.08-1.44-3.81,.13-.33,.29-.64,.45-1.01-2.66-.82-5.28-1.72-7.95-2.41-.87-.22-1.88,.13-2.82,.2-.39,.03-.83,.1-1.16-.04-.41-.18-.74-.55-1.11-.85,.33-.28,.62-.68,1-.81,1.6-.54,1.62-.59,.9-2.18-.2-.44-.1-1.01-.13-1.53,.51,.11,1.17,.07,1.5,.38,.55,.51,1.18,1.21,1.24,1.89,.12,1.25,.81,1.55,1.82,1.79,1.2,.28,2.36,.77,3.56,1.03,1.69,.36,3.41,.6,5.13,.86,1.15,.18,2.32,.3,3.7,.2-.87-1.12-1.71-2.26-2.64-3.32-.2-.23-.71-.22-1.08-.3-.58-.11-1.2-.11-1.74-.32-.98-.38-1.13-1.05-.56-2.13,.47-.88,1.15-.72,1.82-.31,2.62,1.59,4.78,3.57,5.65,6.66,.08,.28,.39,.65,.65,.7,1.86,.36,3.74,.69,5.62,.96,1.24,.18,2.5,.23,3.8,.34-.72-1.06-1.43-1.95-1.98-2.92-.85-1.5-.96-3.15-.06-4.61,.4-.64,1.33-1.02,2.1-1.33,.75-.31,1.61-.32,2.39-.56,1.09-.33,2,.06,2.72,.76,1.09,1.05,2.09,2.2,3.04,3.37,1.33,1.63,1.44,3.59,1.19,5.57-.11,.87,.09,1.31,1.01,1.41,.45,.05,.88,.3,1.34,.46,.53-3.51,3.54-5.73,7.43-3.43,1.51-3.66,4.78-4.13,8.05-3.96,2.55,.13,5.97,2.68,5.45,6.54-.15,1.15,.64,1.26,1.33,1.63,.76,.41,.95-.16,1.32-.57,.51-.55,1.1-1.04,1.73-1.63-.73-1.43-1.81-2.56-3.24-3.42-2.34-1.41-4.68-2.83-6.89-4.43-1.08-.78-2.22-.98-3.39-.97-2.67,.02-3.73-.25-4.56-2.31-.5-1.24-1.07-2.19-2-3.12-1.24-1.24-1.17-3.5,.13-4.79,2.73-2.72,6.55-3.4,9.91-.79,1.74,1.36,1.54,3.7,1,5.23-.11,.31-.27,.67-.21,.96,.5,2.27,.51,2.43-.45,4.37l3.81,2.34c-.4-.97-.9-1.73-1.02-2.55-.43-2.88,.55-4.51,3.22-5.76,.88-.41,1.69-1,2.6-1.37,1.74-.71,2.95,.29,3.87,1.55,1.2,1.65,1.74,3.51,.79,5.5-.61,1.29-1.2,2.62-2.03,3.76-.55,.76-1.5,1.23-2.3,1.86,.78,.83,1.66,1.76,2.61,2.77,.93-.89,2.07-1.44,3.53-1.33,1.85,.14,3.26,1.96,2.59,3.7-.48,1.23-1.23,2.36-1.97,3.74,0,0,.19,.27,.34,.49,.94-.85,1.76-1.72,2.7-2.41,.91-.67,1.95-1.16,2.93-1.75,.82-.49,1.7-.93,2.44-1.53,1.47-1.17,3.61-1.04,4.93,.51,1.86,2.18,2.52,4.66,1.44,7.42-.55,1.39-1.19,2.75-1.72,3.94,1.94,.11,3.99,.03,5.95,.39,2.64,.49,4.39,2.09,4.73,4.95,.06,.47,.41,.95,.74,1.32,2.3,2.53,1.34,4.58-.75,6.56,1.32,.33,2.75,.59,4.11,1.05,2.24,.77,3.26,2.38,3.09,4.79-.1,1.46,.05,1.61,1.37,2.47,.45-1.46,.77-2.99,1.37-4.4,.99-2.28,2.53-3.94,5.32-3.87,.43,0,.87-.31,1.29-.52,2.06-1,4.07-.89,6.04,.23,.51,.29,.98,.64,1.65,.82-1.45-2.35-2.87-4.71-4.36-7.04-4.77-7.46-10.58-14.02-17.39-19.68-4.02-3.34-8.24-6.46-12.11-9.98-6-5.46-10.94-11.72-13.2-19.72-1.12-3.98-.84-7.99,.34-11.86,1.8-5.91,4.59-11.33,9.37-15.41,1.48-1.27,3.34-2.15,5.13-2.98,3.71-1.72,7.29-3.49,9.74-7.04,1.88-2.73,2.57-5.75,3.07-8.88,.3-1.87,.47-3.76,.69-5.64,.01-.12,.06-.28,0-.35-.63-.86-1.26-1.73-1.93-2.57-.73-.92-1.71-.82-2.81-.98-2.8-.4-5.53-1.19-7.52-3.6-2.25-2.74-3.97-5.71-5.03-9.1-.65-2.09-2.57-3.18-3.99-4.67-1.67-1.75-3.35-3.53-4.68-5.54-.81-1.23-.99-2.88-1.38-4.37-.21-.82,0-1.57,.72-2.14,.74-.6,1.47-1.23,2.16-1.89,.23-.22,.36-.56,.47-.86,.32-.98,.46-2.05,.94-2.93,.71-1.3,1.2-2.56,.95-4.08-.07-.43,.14-1.05,.44-1.37,1.41-1.49,2.91-2.91,4.37-4.36h.48c.23,.41,.44,.84,.7,1.23,.49,.73,1.05,1.34,2.06,.76,.14-.08,.4,.04,.61,.09,1.73,.42,3.28,1.13,4.61,2.36,.4,.37,1.08,.44,1.64,.65,.48,.18,1.15,.2,1.42,.54,1.08,1.34,2.51,1.18,3.94,1.14,.44-.01,.88,.03,1.32-.02,1.37-.17,2.18,.43,2.64,1.71,.13,.36,.48,.72,.82,.93,1.64,1.02,3.3,1.98,4.96,2.97m68.74,83.46c.91-.58,1.85-1.03,2.6-1.68,1.72-1.49,3.39-3.01,3.69-5.52,.07-.54,.78-1.23,1.34-1.43,1.13-.39,1.92-1.01,2.5-2.04,.4-.72,.9-1.42,1.48-2,.23-.23,.79-.19,1.2-.17,.11,0,.23,.36,.3,.57,.11,.34,.17,.7,.29,1.04,.29,.84,.77,1.66,.86,2.51,.19,1.94,.02,3.92,.33,5.83,.29,1.81-.19,3.18-1.35,4.47-.36,.4-.61,.91-.91,1.37l.2,.16,2.18-.9c-2.16,.93-3.55,2.34-3.43,5.01,.44-.32,.84-.56,1.17-.88,1.02-.96,1.89-2.11,3.03-2.87,1.56-1.05,3.29-1.84,4.99-2.67,.63-.3,1.25-.62,.94-1.35-.47-1.11-.99-2.28-1.77-3.17-.77-.87-.9-1.58-.47-2.57,.13-.29,.13-.9-.03-1.01-1.34-.85-1.27-2.27-1.34-3.52-.06-1.06-.4-1.5-1.4-1.81-1.75-.55-2.06-1.29-1.59-3.1,.06-.23,.09-.47,.15-.7,.31-1.23,.2-1.38-1.06-1.41-1.86-.04-2.66-.7-3.47-2.36-.41-.85-1.12-1.59-1.8-2.27-.89-.88-1.95-1.6-2.83-2.49-1.19-1.21-2.33-2.21-4.26-1.57-1.3,.43-2.61,.08-3.3-1.25-.64-1.24-1.6-1.15-2.72-1.05-2.54,.23-5.11,.55-7.56-.53-2.04-.9-3.87-.72-5.51,.86-.4,.39-.8,.78-1.24,1.13-.23,.18-.53,.3-.81,.4-.8,.29-1.61,.58-2.43,.81-.46,.13-.98,.27-1.42,.17-1.26-.31-2.45-.35-3.68,.19-2.42,1.07-4.39,2.79-6.43,4.4-1.08,.85-2.21,.96-3.48,.9-.89-.04-1.86-.16-2.66,.13-2.75,.99-5.27,.83-7.71-.86-.86-.59-1.8-.62-2.8-.07-1.59,.87-3.19,1.76-4.89,2.37-1.27,.46-2.18,1.16-2.98,2.2-.41,.54-1.06,1.19-1.64,1.22-.99,.06-1.67,.46-2.28,1.11-.74,.79-1.55,1.53-2.13,2.42-1.41,2.15-2.83,4.23-5.36,5.22-.2,.08-.42,.68-.32,.82,.63,.85,.21,1.57-.16,2.33-.56,1.14-1.18,2.26-1.6,3.45-.27,.77-.24,1.66-.34,2.49-.13,1.06,.58,2.35-.58,3.11-1.37,.9-2.08,1.99-1.81,3.66,.04,.28-.09,.59-.14,.85,1.29-.26,2.51-.62,3.76-.75,3.62-.37,5.57,.24,6.4,3.67,.26,1.06,.08,2.23,.1,3.35,.03,1.56,.67,2.17,2.16,2.03,.39-.04,.78-.12,1.17-.19,1.33-.25,2.23,.35,2.79,1.59,.37,.83,.85,1.75,1.55,2.28,2.12,1.59,4.37,3.03,6.59,4.48,.52,.34,1.14,.52,1.71,.77-1.23-1.23-2.59-2.21-3.84-3.3-1.2-1.04-2.46-2.07-3.13-3.58,2.43,1.31,4.64,2.87,7,4.16,2.14,1.17,4.38,2.19,6.68,3.03,1.37,.5,2.93,.51,4.4,.74v.51c-1.16,.12-2.33,.23-3.52,.35,1.43,.76,3.45-.13,4.3,1.87,.06,.15,.42,.25,.64,.24,.4-.01,.8-.12,1.32-.21l-.48,1.1c4.43-1.62,8.77-2.86,11.15-6.77-1.16-1.09-2.17-2.04-3.19-2.97-1.48-1.35-2.03-3.25-2.96-4.93-.13-.23,.09-.77,.29-1.07,.61-.93,1.28-1.81,2.5-2.02,.08-.01,.13-.34,.16-.52,.09-.47,.05-.99,.27-1.38,.24-.43,.65-.91,1.08-1.03,.34-.1,.83,.31,1.25,.5,.21,.1,.41,.24,.69,.4-.4-1.2-.76-2.24-1.1-3.27-.19-.56-.34-1.12-.54-1.67-1.35-3.6-4.29-6.48-4.49-10.63-.09-1.81-.85-3.6-1.32-5.46l.74,.24,.21-.22-2.9-4.43c.46,.25,.77,.36,1.01,.56,2.3,1.92,3.4,4.56,4.28,7.3,.72,2.22,1.39,4.46,2.05,6.7,.94,3.22,1.85,6.45,2.79,9.67,.07,.25,.38,.66,.53,.64,1.78-.28,2.55,1.51,4,1.92,.31,.09,.58,.66,.69,1.06,.51,1.92,.96,3.85,1.44,5.84,1.45-2.12,3.11-4.02,5.53-5.07,.13-.06,.23-.21,.34-.32,.67-.72,1.34-1.44,2-2.17,.65-.71,1.28-1.43,1.83-2.05l-2.3,.75c1.66-1.4,3.54-2.47,5.07-3.9,1.54-1.43,3.19-2.87,4.1-4.86-1.51,1.35-2.97,2.74-4.34,4.21-1.45,1.55-3.28,2.2-5.47,2.7,.26-.69,.41-1.18,.62-1.63,1.23-2.65,3.67-4.27,5.48-6.42,1.5-1.77,3.63-2.97,4.65-5.18,.33-.72,.77-1.39,1.22-2.04,1.01-1.49,2.02-2.95,2.09-4.85,.01-.35,.28-.69,.43-1.03,.7,2.06,.23,3.82-.91,5.45-1.35,1.93-2.69,3.87-4.1,5.89Zm16.68,82.94l-.34,.07c-.42,2.58-1.33,4.97-2.86,7.07-1.12,1.54-2.34,3.01-3.63,4.41-3.25,3.54-6.87,6.68-11.2,8.8-2.65,1.3-5.5,2.25-8.32,3.17-6.46,2.11-12.18,5.75-18.18,8.8-4.31,2.19-8.33,4.93-12.51,7.37-1.71,1-3.66,1.66-5.2,2.85-2.8,2.17-5.49,4.52-8.03,7-4.96,4.87-9.75,9.91-13.32,15.94-1.72,2.9-3.63,5.62-6.83,7.23,1.01,.27,2,.54,3,.55,4.61,.05,9.1-.92,13.35-2.49,7.21-2.66,14.39-5.46,21.33-8.74,11.3-5.35,21.69-12.21,31.57-19.9,7.18-5.6,12.73-12.27,16.05-20.82,2.54-6.51,4.42-13.16,5.37-20.08,.05-.39-.18-.83-.27-1.24Zm-58.96,37.36c1.82-.99,3.49-1.88,5.13-2.8,7.25-4.06,14.46-8.2,22.16-11.39,2.12-.88,4.18-2.03,6.38-2.58,2.91-.72,5.59-1.94,7.99-3.57,4.73-3.22,8.96-6.95,11.85-12.11,1.66-2.96,2.82-5.84,2.45-9.27-.28-2.55-2.35-4.66-4.92-4.74-1.93-.06-3.65,.29-5.08,1.8-1.8,1.91-3.84,3.59-5.63,5.51-1.65,1.77-3.08,3.74-4.67,5.58-1.58,1.83-3.19,3.62-4.84,5.38-1.33,1.42-2.66,2.87-4.14,4.13-2.25,1.9-4.63,3.64-6.96,5.44-1.85,1.44-3.62,3.01-5.58,4.29-4.01,2.6-8.03,5.11-10.53,9.42-.98,1.69-2.32,3.18-3.61,4.91Zm-25.64-177.09c-.49-2.63,.41-4.79,2.06-6.68,1.27-1.45,2.22-2.95,1.99-5.02-.24-2.26-.22-4.55-.54-6.79-.22-1.59-.52-3.29-1.96-4.34-.91-.67-1.94-1.17-2.99-1.79l-2.29,2.14c.39-.68,.81-1.32,1.31-1.88,.68-.77,.55-1.41-.19-2.03-.3-.25-.6-.51-.92-.78-1.79,1.32-2.48,3.29-3.46,5.07,.01-2.24,1.42-3.8,2.63-5.48-.71-.79-1.15-.44-1.53,.29-1.15,2.24-2.3,4.47-3.49,6.78-.14-2.76,1.56-4.86,2.63-7.29-2.48,.05-4.78,.05-6.28,2.52-.03-1.64,.46-2.37,2.15-2.88,1.22-.37,2.51-.49,3.77-.73-.26-.39-.6-.62-.94-.61-2.21,.05-4.01,.97-5.41,2.68,.85-2.83,3.24-3.13,5.72-3.56-.35-.36-.75-.73-1.18-.77-1.15-.09-2.32,0-3.48-.04-.47-.01-1.1,0-1.36-.28-1.03-1.08-2.37-1.36-3.69-1.77-.47-.15-.87-.54-1.27-.86-.93-.75-1.93-1.33-3.35-1.46,.47,4.02-.07,8.16,3.67,11.19-2.07-.56-3.08-1.95-3.44-3.65-.44-2.13-.53-4.33-.83-6.5-.05-.39-.29-.91-.6-1.09-.89-.52-1.86-.89-3.12-1.46-.74,.72-1.8,1.67-2.76,2.72-.31,.34-.48,.92-.48,1.39,.01,1.66-.26,3.2-1.26,4.59-.36,.5-.52,1.15-.86,1.92,2.83-.29,4.91,.49,6.39,2.62,.18,.26,.41,.51,.67,.68,.31,.2,.67,.4,1.03,.45,.94,.13,1.9,.16,2.85,.26,3.52,.38,6.32,1.68,6.99,5.62,.03,.16,.1,.3,.14,.46,.31,1.19,1.18,1.54,2.28,1.63q.23-3.26,.76-3.75v2.04l.18,.05,2.12-4.62,.37,.17c-.27,2.43-1.71,4.44-2.64,6.67,2.04,.99,4.14,1.8,5.17,3.94l.65-4.09c.19,1.25,.1,2.44,.08,3.63,0,.41,.34,1.03,.17,1.21-.78,.83-.45,1.71-.17,2.51,.65,1.89,1.43,3.75,2.13,5.63,.6,1.61,.58,1.62,2.57,1.33Zm29.1,90.44l-.09-.37c-.28,0-.56-.04-.83,0-3.2,.61-6.32-.08-9.47-.47-1.79-.22-3.61-.28-5.42-.24-1.78,.04-3.55,.35-5.33,.43-.66,.03-1.34-.28-2.01-.43l.07-.31c1.05-.1,2.11-.14,3.15-.3,2.5-.39,4.98-.93,7.49-1.2,1.12-.12,2.3,.26,3.45,.41l.05-.4c-3.92-.5-7.84-1-11.76-1.51l.05-.45h4.56v-.14c-2.15-.69-4.3-1.39-6.45-2.08l.13-.48c4.15,.85,8.31,1.7,12.46,2.56-1.47-.97-3-1.62-4.43-2.46-1.43-.84-2.76-1.86-4.13-2.8-.16-.11-.34-.21-.53-.24-2.3-.36-4.27,.39-5.49,2.28-.8,1.24-1.83,1.9-3.03,2.53-.98,.51-1.89,1.15-2.86,1.7-.48,.27-.98,.54-1.51,.68-.4,.11-.86,.02-1.35,.02,.21,.95,.49,1.78,.55,2.63,.09,1.11,.72,1.57,1.63,2.07,.77,.43,1.47,1.21,1.89,2.01,.54,1.03,1,1.76,2.35,1.95,2.72,.37,2.86,.63,3.39,3.39,.18,.95,.77,1.17,1.54,.94,1.13-.34,1.97,.11,2.88,.69,1.27,.82,2.53,1.76,4.23,.66,.49-.32,1.41,.05,2.14,.06,.6,0,1.23,.04,1.79-.12,2.61-.76,5.22-1.26,7.97-.8,.68,.12,1.53,.03,2.12-.29,.87-.48,1.57-1.27,2.34-1.92l-.11-.14c-1.19,.42-2.38,.83-3.58,1.25l-.22-.47c1.06-.78,2.11-1.56,3.33-2.47-1.19,.15-2.12,.19-3.01,.39-2.16,.48-4.28,1.16-6.45,1.51-1.23,.2-2.59,.11-3.56-.74,1.73-.14,3.54-.12,5.27-.47,1.77-.36,3.46-1.09,5.11-1.62-.77-1.44-1.83-.87-2.87-.58-.76,.21-1.53,.43-2.31,.54-.48,.07-.99-.06-1.49-.1v-.4c.94-.29,1.9-.54,2.83-.89,.9-.34,2.05-.3,2.73-1.47-.46-.04-.69-.1-.92-.07-3.27,.38-6.53,.78-9.79,1.14-1.11,.12-2.24,.22-3.19-.69,.79-.05,1.51,.02,2.17-.15,3.57-.96,7.14-1.81,10.89-1.73,1.2,.02,2.41-.54,3.61-.84Zm-60.6-110.61c-.26,1.37,.47,2.45,1.42,3.42,1.26,1.28,2.56,2.53,3.84,3.8,1.49,1.47,2.43,3.17,2.65,5.33,.14,1.39,.69,2.73,1.05,4.1l.44-.12c-.22-.86-.49-1.71-.64-2.59-.08-.43,0-.9,.11-1.33,.09-.37,.39-.68,.49-1.05,.29-1.04,.52-2.09,.78-3.14l.36,.09c0,2.22-.05,4.43,.01,6.65,.06,2.35,1.36,4.2,2.63,6.05-.31-1.38-.76-2.7-1.22-4.02-.48-1.4-.5-2.81-.35-4.31l1.6,2.68,.29-.65c.59,2.51,1.17,5.1,1.82,7.67,.1,.4,.51,.72,.78,1.07l.28-.2c-.23-.87-.48-1.73-.67-2.6-.2-.93-.43-1.87-.48-2.82-.05-.85,.13-1.71,.2-2.56,.44,3.31,.89,6.56,3.65,8.9-.97-2.36-1.47-4.78-1.2-7.31,.26-2.45,.71-4.86,2.16-6.96-.23,2.3-.51,4.58-.9,6.83-.46,2.64,.17,5.04,1.44,7.32,.17,.3,.55,.49,.83,.73l.27-.2c-.08-.66-.2-1.31-.24-1.97-.04-.64-.1-1.3,.02-1.91,.1-.55,.42-1.06,.65-1.58l.29,.12c-.66,2.59-.03,5.03,.86,7.44v-3.83h.12l.67,3.91c1.49-1.88-.16-4.09,.81-6.26,.4,1.65,.66,3.08,1.1,4.47,.45,1.44,1.06,2.82,1.6,4.23l.3-.1-.19-3.6,.49-.11c.07,2.99,1.05,5.61,3.27,8.13-.08-.7,0-1.17-.19-1.5-2.05-3.77-3.36-7.72-3.38-12.09,0-1.2-.53-2.56-1.23-3.55-.92-1.29-1.28-2.62-1.33-4.11-.07-1.82-.83-3.22-2.47-4.08-.92-.48-1.83-1-2.81-1.33-1.99-.67-3.4-1.76-3.73-3.99-.3-2.08-1.72-3.14-3.64-3.63-.5-.13-1.01-.24-1.52-.33-4.82-.85-3.63-.24-6.6-2.37,.35,3.54,1.45,6.63,3.17,9.56-.98-1.25-2.03-2.51-2.53-3.96-.64-1.85-.95-3.84-1.19-5.8-.14-1.16-.87-1.29-1.67-1.49-.98-.25-1.2,.5-1.27,1.16-.17,1.78-.44,3.6,1.09,5.04,.52,.49,.97,1.05,1.42,1.61,.8,1,1.57,2.02,2.35,3.03l-.35,.28c-1.83-2.06-3.67-4.11-5.49-6.15Zm94.98,102.37c3.68-2.34,3.7-5.83,3.52-9.55,1.86,1.31,.59,3.05,.7,4.63,4.07-4.81,5.42-10.36,5.27-16.44-.49,.44-.99,.97-1.03,1.52-.12,1.6-.96,2.63-2.23,3.44-1.27,.81-1.85,2.02-1.89,3.5-.07,2.71-2.99,4.71-5.64,3.98-.83-.23-1.83-.24-2.66-.01-2.92,.82-5.11,2.63-6.62,5.28-.39,.68-.96,1.27-1.51,1.84-.69,.71-1.48,.98-2.48,.52-.38-.18-.92-.11-1.36-.02-1.73,.38-2.11,2.14-3.18,3.19-.91,.9-1.74,1.96-2.82,2.58-2.22,1.28-4.59,2.3-6.88,3.46-.38,.19-.66,.58-.98,.87l.22,.39c.47-.18,1.03-.24,1.39-.55,1.3-1.08,2.65-1.41,4.33-.97,.65,.17,1.47-.23,2.2-.42,.86-.23,1.7-.72,2.56-.72,2.35,0,4.7,.19,7.08,.31-.56-2.85-.47-3.44,.6-4.15,.61,3.02,1.53,4.25,3.17,4.14-.25-1.62-.49-3.23-.73-4.85l.27-.05c.28,1.31,.55,2.63,.9,4.28,.6-2.2,1.1-4.03,1.59-5.87l.25,.06c-.18,1.08-.35,2.16-.53,3.24,.37-.56,.49-1.18,.74-1.74,.86-1.95,.42-3.69-.75-5.34-.16-.23-.3-.46-.47-.68-.16-.21-.35-.4-.74-.86,4.15,2.2,3.9,5.42,2.6,9.02,1.4-.74,1.58-.95,1.59-2.13,.03-2.49,0-4.98,0-7.44,1.28,2.72,.85,5.67,.86,8.65,1.61-2.43,2.07-5.3,3.34-7.86,.49,1.62-.5,3.05-.68,4.73Zm-42.3,96c.92-1.24,1.67-2.24,2.42-3.25,1.25-1.69,1.62-3.36,1.19-5.6-1.32-6.9-4.46-12.85-8.7-18.31-.2-.26-.87-.43-1.17-.3-1.04,.47-2.2,.91-2.98,1.69-1.13,1.12-2.45,2.41-2.82,3.85-.58,2.28-.06,4.72,1.38,6.68,1.89,2.6,3.9,5.13,6,7.57,1.91,2.22,4.01,4.28,4.69,7.67Zm-14.93-17.9c-.22,1.81-.47,3.4-.6,4.99-.13,1.62-.34,3.27-.18,4.87,.34,3.49,1.06,6.95,1.32,10.45,.28,3.77,.21,7.56,.28,11.35,0,.49-.08,.97-.15,1.77,3.94-4.63,8.5-8.2,11.98-12.79,.18-.24,.28-.61,.28-.91-.02-2.75-1.5-4.82-3.29-6.67-3.72-3.84-6.9-8.06-9.64-13.06Zm-24.56-41.75c-.13-.14-.26-.28-.38-.44-.31-.44-1.22-.77-.56-1.41,.3-.29,1.07-.11,1.63-.1,.3,0,.63,.22,.89,.14,1.8-.57,2.59-2.81,1.61-4.42-.5-.83-1.07-1.67-1.37-2.58-.6-1.79-1.62-3.11-3.51-3.5-1.91-.4-3.82-.46-5.75,.05-1.31,.34-2.02,1.32-2.59,2.3-.84,1.45-1.39,3.06-2.11,4.59-.12,.26-.42,.46-.67,.65-1.07,.84-1.39,1.81-.95,3.11,.54,1.61,1.61,2.83,3.07,3.63,2.79,1.53,8.02,.51,10.7-2.04Zm52.49,43.58c12.78-6.69,23.45-15.64,30.63-28.33-12.59,6.88-23.14,15.96-30.63,28.33Zm-21.68-39.64c-.05,.1-.12,.18-.11,.24,.75,3.75-.28,7.16-2.02,10.41-.75,1.4-1.22,2.03-3.74,1.7-.22-.03-.45,.08-.95,.18,1.59,1.46,3.03,2.66,4.34,4,1.44,1.47,2.75,3.07,4.14,4.59,.78,.85,1.62,1.66,2.46,2.46,.15,.14,.44,.25,.64,.21,1.73-.3,3.45-.64,5.23-.97-2.29-7.98-5.05-15.86-9.99-22.81Zm64.68-36.9c0,4.22,3.86,6.65,6.89,5.07,3.66-1.91,5.42-5.23,6.35-9.06,.17-.71,.17-1.61-.13-2.25-1.06-2.26-3.13-3.2-5.46-3.4-3.01-.25-5.82,2.14-6.48,5.17-.38,1.76-.91,3.48-1.17,4.47Zm-100.76,44.69c.22,.69,.34,1.4,.66,2.01,.94,1.78,3.63,2.83,5.73,2.43,2.42-.47,4.15-1.86,5.14-4.01,1.13-2.42,2.09-4.94,2.94-7.47,.28-.85,.06-1.96-.86-2.52-1.39-.85-2.84-1.51-4.59-1.14-3.63,.78-5.98,3.09-6.7,6.65-.06,.31-.43,.56-.69,.81-.29,.28-.74,.48-.88,.82-.32,.75-.49,1.57-.74,2.43Zm29.83,2.2c1.51,.32,1.69,.24,2.35-1.05,.2-.39,.42-.77,.59-1.17,1.16-2.76,1.9-5.53,.67-8.5-.89-2.16-3.61-3.92-5.55-3.35-1.31,.38-2.51,1.17-3.97,1.01-.28-.03-.64,.3-.9,.52-2.11,1.8-2.84,4.23-3.03,6.87-.02,.31,.28,.73,.55,.97,.85,.78,1.76,1.5,2.64,2.25,1.3,1.11,2.54,2.29,3.89,3.32,.84,.64,1.32,.41,1.42-.66,.17-1.7,.26-3.41,.29-5.12,.02-.81-.16-1.62-.25-2.42l.42-.05c1.9,2.19,.82,4.81,.87,7.38Zm-47.39-18.88c-2.36,.46-4.36,.86-6.35,1.25l-.13-.35c1.98-.9,3.97-1.8,6.26-2.85-1.06-.51-1.98-.97-2.92-1.39-.59-.26-1.28-.36-1.8-.71-2.7-1.87-5.88-1.47-7.63-.22-3.05,2.18-3.32,4.25-.93,6.87,.12,.14-.05,.84-.17,.86-.95,.19-.83,.91-.72,1.5,.21,1.21,1.03,1.93,2.16,2.32,2.07,.72,4.21,.89,6.33,.43,1.74-.37,3.37-1.14,4.13-2.93,.63-1.48,1.14-3.02,1.79-4.78Zm52.34-93.43l-.05,.56c.61,.11,1.21,.3,1.82,.31,1.72,.02,3.21,.57,4.42,1.79,.91,.92,1.31,2.57,3.15,2.08,.03,0,.07,.04,.1,.05,2.06,.97,4.14-.39,4.35-2.58,.16-1.76-.97-2.78-1.79-3.96-.86-1.23-2.03-2.25-3.01-3.41-2.42-2.85-5.41-4.39-9.21-4.17-2.29,.13-4.54,.01-6.74-.69-.26-.08-.54-.12-.81-.17,3.37,1.8,7.03,2.45,10.74,2.99-1.74,.34-3.48,.93-5.23,.97-1.83,.03-3.68-.47-5.52-.74l-.08,.38c1.24,.7,2.46,1.42,3.99,1.48,1.48,.06,2.95,.25,4.42,.38v.21l-3.27,.42c1.73,.63,3.14,1.15,4.55,1.67l-.12,.45-4.47-.66c1.09,1.02,2.57,.7,3.78,1.5,.55,.37,1.77-.27,2.69-.47,1.1-.24,2.28-.9,3.28-.69,2.25,.47,4.03,1.86,5.28,3.84,.11,.18,.13,.41,.28,.89-.58-.38-.93-.61-1.28-.84-1.23-.8-2.41-1.7-3.71-2.37-.61-.31-1.62-.49-2.16-.2-1.71,.94-3.43,1.46-5.4,1Zm51.59,66.75l-.26-.38c-1.75-.15-3.38,.94-4.34,2.9-.62,1.28-2.57,2.21-3.8,1.59-1.58-.79-2.65-.14-3.67,.92-1.35,1.41-2.62,2.91-4.02,4.26-2.98,2.86-5.36,3.52-8.8,1.88-.57-.27-1.26-.32-1.91-.35-2.15-.11-3.77,.93-5.24,2.39-1.28,1.29-2.78,1.78-4.67,1.27-1.2-.32-2.53-.34-3.78-.23-1.37,.12-2.71,.55-4.31,.9,.91,.95,1.53,1.36,2.54,1.07,1.18-.33,2.4-.58,3.62-.66,1.46-.09,2.94,.01,4.41,.08,1.76,.08,3.52,.36,5.27,.25,1.41-.09,2.75-1.16,4.23-.2,.14,.09,.44-.08,.67-.14,.69-.19,1.38-.35,2.06-.57,1.61-.52,3.25-.88,4.66-1.98,.77-.6,1.88-.75,2.94-1.15,.52-1.48,1.97-2.48,3.39-2.82,2.25-.54,3.14-2.94,5.35-3.35,.19-.03,.29-.45,.45-.67,.2-.29,.38-.6,.64-.83,1.52-1.4,3.06-2.79,4.59-4.17Zm30.48,1.84l-.21,.35c-.83-.24-1.65-.56-2.5-.7-.53-.09-1.37-.11-1.63,.21-.95,1.15-1.76,2.43-2.55,3.72-.66,1.08-.29,2.07,.88,2.61,1.62,.74,3.32,.55,5.02,.38,1.52-.16,3.05-.28,4.57-.45,.29-.03,.62-.13,.83-.32,1.1-.98,2.19-1.98,3.25-3.01,.91-.88,1.33-1.87,.86-3.21-.62-1.78-2.46-3.35-4.33-3.27-1.45,.06-2.93,.17-4.33,.52-1.23,.31-2.54,.65-3.42,1.58,1.26,.57,2.41,1.09,3.57,1.61Zm-126.17,19.31c1.38,.3,2.58,.01,3.42-1.12,1.23-1.65,2.48-3.3,3.53-5.07,1.5-2.53,1.78-5.14-.02-7.72-.86-1.24-2.05-1.28-2.98-.11-.3,.38-.83,.68-1.31,.82-2.54,.7-4.71,1.88-5.96,4.32-.14,.28-.16,.82,0,1.02,1.95,2.26,3.13,4.84,3.3,7.86Zm25.32,34.85c1.01,1.87,1.91,3.68,2.98,5.4,.41,.65,1.15,1.42,1.83,1.51,1.93,.27,3.86-.01,5.7-.79,2.03-.85,3.19-2.58,4.53-4.16,1.08-1.28,1.14-2.27,.27-3.66-.51-.82-1.28-.75-1.85-.37-.59,.4-1.08,1.06-1.41,1.71-.51,.99-.82,2.07-1.25,3.09-.09,.22-.33,.38-.5,.57-.19-.22-.5-.42-.54-.67-.05-.37,.03-.79,.15-1.16,.3-.94,.64-1.87,.97-2.79-3.11-1.55-8.31-1.47-10.87,1.32Zm-39.29-37.29c2.43,0,3.6-1.13,3.35-3.43-.13-1.21-.48-2.4-.8-3.59-.08-.31-.37-.63-.64-.83-1.68-1.27-3.24-2.74-5.37-3.25-1.09-.26-2.15-.27-3.06,.5-.84,.71-1.8,1.39-1.27,2.78,.12,.32,0,.8-.15,1.14-.53,1.22-.38,2.41,.52,3.4,1.99,2.18,4.31,3.63,7.42,3.29Zm138.67-37.64c.55,1.36,1.04,2.6,1.55,3.83,1.42,3.45,4.31,3.89,7.34,2.94,1.11-.35,1.59-1.27,1.77-2.38,.24-1.58,.2-3.13-.23-4.68-.34-1.24-.82-2.3-2.11-2.82-.78-.31-1.6-.61-2.25-1.1-1.85-1.39-3.41-1.48-4.4,.15-.74,1.22-1.11,2.67-1.66,4.07Zm10.24-7.82l.05,.28c.81-.09,1.65-.05,2.41-.29,1.95-.61,3.84-1.39,5.79-2.02,1.75-.56,3.21-1.33,3.33-3.22-.71-.94-1.4-1.74-1.96-2.63-.74-1.17-1.76-1.5-3.05-1.32-.66,.09-1.33,.19-2,.22-2.7,.11-4.79,1.29-6.13,3.63-.38,.66-.9,1.45-.14,2.29,.16,.18,.1,.61,.07,.92-.06,.65-.16,1.3-.28,2.17l4.46-2.72,.22,.34-2.78,2.35Zm-83.35-48.66c.79,.89,1.42,1.6,2.06,2.3,1.15,1.27,2.32,2.53,3.47,3.79,.88,.97,1.82,1.54,3.23,.98,.67-.26,1.5-.21,2.25-.16,.93,.06,1.86,.2,2.76,.44,1.3,.35,1.85-.67,2.33-1.4,.22-.34-.32-1.25-.63-1.85-.21-.41-.61-.73-.93-1.09-.76-.86-1.61-1.67-2.26-2.61-.39-.56-.77-.7-1.4-.86-1.68-.43-3.7,.47-5.08-1.46-1.55,1.94-3.78,1.68-5.82,1.91Zm-8.95-9.28l.17-.33c-.48-.29-.95-.59-1.43-.87-.2-.11-.42-.19-.63-.27-.62-.23-1.26-.69-1.87-.65-1.1,.07-2.33,.2-3.22,.75-1.21,.75-2.4,.61-3.65,.64-.31,0-.62,.04-1.04,.08,.13,1.09,.22,2.11,.37,3.13,.12,.78,.15,1.64,.52,2.29,.19,.34,1.02,.39,1.58,.44,2.13,.21,4,1.59,6.37,.95,1.6-.44,3.41-.04,5.12-.11,.82-.03,1.65-.23,2.44-.46,.33-.1,.58-.48,.87-.73-.34-.18-.68-.5-1.03-.53-1.03-.08-2.08-.02-3.12-.08-1.02-.06-2.03-.21-3.04-.32v-.51h6.12v-.47c-3.05,.21-6.09,.38-8.94-.79l.05-.4,5.57,.56c-.77-1.64-1.95-1.06-2.94-1.07-1.17-.01-2.35,0-3.52,0v-.35c.84-.16,1.68-.34,2.53-.48,.9-.15,1.8-.28,2.7-.42Zm-64.62,102.62l.17-.26c-.41-.46-.81-.92-1.22-1.39-1.08-1.21-1.23-2.62-.83-4.13,.17-.64,.32-1.3,.54-1.92,.29-.79,.5-1.68,1-2.32,1.17-1.49,2.97-1.67,4.8-1.9-.06-.37-.08-.72-.18-1.05-.81-2.72-3.38-3.98-6.49-3.2-2.76,.7-3.62,2.01-3.39,4.92,.05,.59-.16,1.28-.47,1.8-.61,1.04-.36,1.81,.46,2.56,.98,.9,2.09,1.93,1.7,3.33-.4,1.45,.33,1.98,1.32,2.47,.83,.41,1.71,.72,2.57,1.07Zm126.67,2.24c-1.51,.51-2.77,1.52-3.22,3.12-1.29,4.55,1.95,7.72,5.27,8.65,2.11,.59,3.86-.06,4.24-1.57,.22-.86,.35-1.91,.06-2.7-.45-1.23-1.06-2.73-2.53-2.91-1.6-.19-3.37-.31-4.66,1.17-.37,.42-.85,.74-1.48,1.28,1.07-2.53,2.65-3.77,5.17-3.29l-2.85-3.76Zm27.08-53.58c.58-1.8,1.15-3.47,1.66-5.15,.44-1.48-.18-2.93-1.57-3.83-1.27-.83-3.08-.75-4.18,.26-.84,.78-1.4,1.84-2.63,2.23-.29,.09-.48,.78-.56,1.22-.33,1.81,1.22,4.14,3.54,4.65,1.23,.27,2.48,.41,3.74,.61Zm-148.43,28.52c.33,.73,.55,1.54,1.01,2.18,.52,.73,1.26,1.3,1.89,1.95,1.17,1.18,1.9,1.12,2.79-.33,.52-.84,.98-1.72,1.39-2.63,.77-1.7,.57-3.32-.51-4.84-.86-1.21-1.73-1.34-2.93-.43-.38,.29-.72,.67-1.14,.83-1.61,.61-2.29,1.51-2.51,3.27Zm121.44-10.13l.17,.09c.12-.13,.27-.25,.37-.39,1.46-2.13,2.95-4.24,4.33-6.42,.42-.67,.53-1.55,.75-2.34,.59-2.14,1.07-4.31,2.67-6.01,.44-.46,.87-1.16,.87-1.75,0-1.49-.24-2.98-.38-4.47-.74,2.39-2.31,4.19-4,5.91-.14,.14-.21,.34-.32,.5-.6,.9-1.21,1.8-1.79,2.71-.18,.27-.44,.61-.4,.89,.44,3.27-.02,6.39-1.5,9.35-.31,.62-.51,1.29-.76,1.94Zm-145.28,19.23c-.12-.61-.08-1.34-.4-1.82-1.04-1.58-2.17-3.1-3.35-4.58-.25-.31-.81-.56-1.21-.54-.73,.05-1.44,.34-2.16,.51-1.23,.3-1.63,.95-1.32,2.21,.84,3.49,3.8,4.56,6.64,5.61,1.63,.6,1.72,.4,1.8-1.39Zm92.77,57.8c2.71,5.5,5.38,10.91,7.9,16.01-.04-.67-.18-1.76-.18-2.85,.03-4.02-.75-7.81-2.62-11.43-.72-1.4-1.68-1.87-3-1.98-.69-.06-1.4,.16-2.09,.25Zm83.85-104.38c1.34,0,3.57-1.75,4.01-3.25,.16-.53,.11-1.14,.09-1.71-.05-1.68-1.47-2.27-2.61-2.96-.59-.36-1.63-.55-2.16-.26-.69,.38-1.14,1.28-1.58,2.02-.18,.3,.1,.92-.1,1.15-1.01,1.13-.39,2.2-.03,3.32,.38,1.19,1.14,1.77,2.39,1.69Zm8.98,83.41l-.31,.13c-.42-1.6-.96-3.18-1.23-4.8-.27-1.65-.27-3.34-.38-5.01-.43,.33-.71,.69-.75,1.08-.25,2.33-.62,4.66-.61,6.99,0,2.03,.76,2.58,2.88,2.94,.12,.02,.22,.17,.41,.34-.85,.05-1.58,.1-2.41,.14,1,.65,2.91,.99,3.7,.62,.28-.13,.59-.47,.66-.77,.68-2.71,.46-5.42-.23-8.12v1.94c-.32-.48-.38-.97-.44-1.47-.13-.98-.22-1.98-.43-2.94-.07-.31-.49-.55-.75-.81-.04,.35-.15,.7-.09,1.04,.38,2.31,.79,4.6,1.19,6.91l-.39,.07c-.45-1.88-.9-3.76-1.37-5.7-.61,1.66-.52,2.89,.55,7.41Zm-179.6-27.83l1.08,.9c-.32,.35-.58,.8-.97,1.04-.9,.56-1.05,1.57-.23,2.22,1.17,.94,2.53,1.35,4.01,1.2,1.4-.14,2.67-1.38,2.17-2.3-.64-1.18-.02-1.29,.77-1.42,.06-1.73-.9-2.93-2.85-3.67-.83,1.14-.85,1.15-2.65,.16l-1.34,1.87Zm145.81-48.59c-2.42,.76-4.56,1.9-6.45,3.53-1.34,1.16-2.78,2.26-4.31,3.17-2.24,1.32-4.27,2.79-5.45,5.19-.11,.21-.16,.45-.31,.93,2.63-1.73,3.7-4.76,6.54-5.94l.23,.93,1.34-.97,.44,.28c-.53,1.26-1.05,2.52-1.56,3.73,4.09-2.77,6.85-6.76,9.54-10.84Zm26.87-25.97c-1.2,1.45-2.47,2.85-3.56,4.37-.34,.48-.41,1.34-.26,1.95,.22,.93,.97,1.51,1.97,1.62,1.04,.11,1.18-.79,1.49-1.43,.33-.68,.54-1.42,.81-2.14l.39,.12c-.33,1.11-.66,2.21-.98,3.31,1.45,.28,2.3-.33,2.92-1.61,.73-1.52-.8-4.49-2.77-6.19Zm-159.64,51.34c0-1.24-.24-2.4-1.38-3.22-2.35-1.69-4.91-1.29-6.92,.57-1.19,1.1-1.13,2.52,.01,3.68,.87,.89,1.19,.87,1.91-.18,.71-1.03,1.69-1.61,2.92-1.5,1.12,.1,2.21,.41,3.46,.65Zm143.21-18.87c-2.3,.82-4.25,2.04-5.92,3.79-1.12,1.18-2.53,2.08-3.67,3.23-.9,.91-1.61,2.02-2.4,3.03l.26,.2c.12-.09,.26-.17,.37-.28,2.31-2.28,4.91-4.02,8.2-4.54,.25-.04,.53-.22,.7-.42,1.13-1.38,2.24-2.79,3.35-4.18l-.88-.84Zm-127.96,49.8c-1.17-2.7-.69-4.97,.32-7.21,.34-.74-.54-2.63-1.21-2.6-.85,.05-1.69,.21-2.62,.33,1.04,2.84,1.58,5.59-1.12,8.1l4.63,1.37Zm120.15-8.39c-1.76-.78-3.28-.32-4.8-.01-.88,.18-1.53,.55-1.49,1.64,.04,1.13,.57,1.9,1.46,2.51,.52,.36,1.03,.74,1.51,1.16,.27,.24,.45,.57,.83,1.07,.9-2.3,1.68-4.32,2.49-6.38Zm-34.55-29.72c.03-.79-1.2-.84-1.8-.01-.65,.89-1.24,1.02-2.2,.19,.54,1.63-1.15,2.32-2.4,2.61-2.29,2.29,.94,.58,1.34,1.11-.42,.86-1.93,4.18,.6,3.29,.15-1.07,.16-1.56,.35-2.47,.05-.24,.44-1.02,.65-1.04,.22-.02,.71,.21,.68,.48-.09,.71-.03,1.41,.11,1.74,.29,.72,.43,1.93,1.23,1.6,1.32-.33,.35-3.01-.52-3.94,1.26-.74,3.62,3.1,4.26,1.47,.48-1.7-1.35-1.84-3.29-2.77,1.04-.09,3.41-.06,3.58-.75-.61-.8-1.41-.87-2.48-.43-.58,.24-2.35,.14-.08-1.09m-88.86,27.16c2.16,0,3.62-.93,4.37-2.77,.34-.83,.48-1.61-.33-2.25-.83-.66-1.68-.39-2.41,.15-.46,.34-.75,.9-1.16,1.31-.24,.23-.56,.46-.87,.51-.75,.13-2.26,1.48-1.95,1.91,.39,.55,1.22,.79,1.87,1.14,.12,.07,.31,0,.47,0Zm-11.91-15.15c-.43-1.09-.73-2.15-1.24-3.1-.5-.93-2.02-1.5-3.05-1.03-.66,.3-1.13,1.07-1.58,1.71-.28,.39-.34,.93-.55,1.55,.72,1.31,.99,1.5,2.6,1.36,.81-.07,1.6-.34,2.41-.48,.33-.06,.69,0,1.4,0Zm136.8,19.27l-2.01,5.83c2.18,.4,3.37-.24,4.3-1.98,.62-1.16,.86-2.3,.15-3.16-.46-.56-1.68-.5-2.43-.69Zm-164.65-2.71c2.53,1.76,6.5,.15,7.85-3.22-.49,.08-.89,.15-1.3,.22-1.05,.18-2.1,.44-3.16,.54-1.62,.14-2.76,.85-3.38,2.47Zm18.52-1.91c.14-.19,.5-.52,.64-.93,.14-.39,0-.87,.07-1.3,.21-1.47-.73-2.69-2.21-2.84-1-.1-2.54,1.31-2.36,2.17,.27,1.3,2.1,2.83,3.87,2.91Zm38.4-106.11l.2-.19c-.33-.48-.6-1.01-1-1.43-1.21-1.27-2.43-2.53-3.71-3.72-1.68-1.56-2.92-3.27-2.51-5.73,.15-.94,.25-1.89,.3-2.84,.01-.23-.27-.48-.42-.73-.43,.35-1.08,.61-1.24,1.06-.28,.81-.3,1.72-.38,2.59-.19,1.9,1.03,3.31,2.09,4.52,2.04,2.32,4.43,4.34,6.67,6.48Zm-69.99,104.73c1.42-.19,2.54-.53,3.19-1.69,.17-.3,.07-1.11-.1-1.18-1.14-.44-2.33-.75-3.51-1.07-.16-.04-.45,.03-.54,.15-.59,.79-1.37,1.68-.89,2.66,.27,.54,1.21,.76,1.84,1.12Zm90.36-27.79c2.34,1.44,4.62,2.85,6.88,4.24-.05-4.27-2.38-5.35-6.88-4.24Zm79.36-15.33c2.06-.99,3.83-2.49,6.24-2.03,.24-3.42,.13-3.99-.89-4.54-.27,.62-.57,1.22-.79,1.85-.38,1.07-1.11,1.81-2.17,2.02-1.51,.29-2.06,1.29-2.39,2.7Zm-110.09,59.76c-2.26-1.79-8.87-4.32-11.11-4.2,1.13,.59,2.28,1.19,3.49,1.57,1.47,.46,2.67,1.14,3.41,2.55,.12,.23,.54,.43,.8,.42,1.1-.06,2.2-.21,3.41-.34Zm-1.83-9.84c-1.53,2.83-.2,6.41,2.59,6.92-.17-2.58-1.01-4.85-2.59-6.92Zm111.5-29.87l.21,.31c2.26-1.45,4.51-2.91,6.78-4.34,.49-.31,1.01-.69,1.56-.8,1.35-.26,1.82-1.2,2.16-2.37-1.73,.22-9.89,5.74-10.7,7.21Zm26.18-8.73c1.1,1.41,2.33,2.5,2.92,3.86,.6,1.4,.58,3.08,.82,4.57,1.89-2.44,.91-4.78-.45-7.06-.69-1.15-1.84-1.3-3.28-1.37Zm-97.74-63.28l-.24-5.43c-.54,.57-1.14,.97-1.37,1.52-.33,.79-.47,1.68-.56,2.54-.17,1.54,.21,1.84,1.74,1.53,.23-.05,.44-.17,.43-.17Zm112,116.68c2.17,1.66,3.08,3.95,3.38,6.51,.31,2.59-.57,4.86-2.12,6.95,.72-.64,1.37-1.34,1.74-2.17,1.33-2.95,.93-5.96-.01-8.92-.44-1.38-1.5-2.16-2.98-2.37Zm-71.51-23.6c1.11-.18,1.25-2.38,2.51-1.68,1.08-.32,1.82-.53,2.64-.77-2.19-.86-4.86-.97-5.44,.46l.29,1.99Zm-25.38-67.92c-.47-1.91-2.7-3.39-4.62-3.03,1.2,1.59,2.49,2.88,4.62,3.03Zm90.98,103.95c-1.38-3.33-.62-6.53-.27-9.83-1.82,2.46-1.67,8.33,.27,9.83Zm-2.7-4.35c.12-2.38,.37-4.71,2.05-6.6-2.4,1.78-3.11,3.61-2.05,6.6Zm-66.82-72.16c-.1,2.49,.32,4.82,2.05,6.92-.71-2.41-1.38-4.67-2.05-6.92Zm-70.09,57.44l-.11-.35-1.93,.72,.58,1.47,1.46-1.84Zm132.53-61.06c-.55,1.44-1.01,2.64-1.46,3.84l.33,.12c.92-1.03,1.56-2.17,1.13-3.96Zm13.45,80.39l.32,.11c.72-1.58,1.7-3.08,1.45-5.07l-1.77,4.97Zm-88.62-110.15l.07,.56,3.07-.44-.07-.46-3.07,.34Zm33.37,46.14c1.68-.22,1.86-1.31,1.79-2.57l-1.79,2.57Zm-49.61-51.79v-.34l-4.63-1.06-.07,.34,4.7,1.06Zm54.34,54.08l.31,.45,2.6-1.88-.22-.31-2.69,1.75Zm50.8,53.78c.22-1.4-.4-2.96-1.33-3.35,.44,1.12,.88,2.22,1.33,3.35Zm-46.87-56.61l.23,.2c.63-.76,1.87-1,1.66-2.47-.63,.76-1.26,1.52-1.89,2.28Z" />
            <path class="cls-1"
                d="M413.45,277.98c.67,2.25,1.34,4.51,2.05,6.92-1.74-2.1-2.15-4.43-2.05-6.92Z" />
            <path class="cls-1"
                d="M432.05,291.2l-1.36-.27,.18-.95c-.18,.13-.3,.17-.35,.25-.44,.74-.67,.55-1.31,.02-1.2-1-.62-1.82-.2-2.86,1.29-3.2,2.59-6.41,3.64-9.69,.52-1.63,.46-3.45,.76-5.16,.65-3.67,2.46-6.62,5.65-8.63,1.06-.67,1.95-1.44,2.41-2.65,.12-.32,.39-.58,.86-.82-.04,.34-.05,.69-.11,1.03-.28,1.72-.47,3.47-.87,5.16-.35,1.5-.77,3.03-1.45,4.4-1.22,2.47-1.85,5.31-4.21,7.11-.12,.09-.23,.24-.27,.39-.57,2.16-1.13,4.32-1.69,6.48l.4,.21c.85-1.45,1.91-2.82,2.51-4.37,1.26-3.27,3.37-5.8,5.96-8l.32,.22c-1.4,1.99-2.88,3.92-4.16,5.99-1.3,2.1-2.4,4.32-3.6,6.51,.36-.31,.78-.62,1.14-1,.93-.95,1.92-1.86,2.74-2.91,.98-1.24,1.8-2.6,2.69-3.91,.9-1.33,1.78-2.67,2.67-4.01l.39,.21c-.1,.3-.15,.62-.3,.89-1,1.85-1.97,3.73-3.08,5.52-.46,.75-1.23,1.31-1.89,1.93-.23,.22-.59,.31-.78,.54-1.86,2.26-4.37,3.97-5.62,6.75-.27,.6-.74,1.12-1.09,1.64Zm2.49-14.12c2.62-3.94,4.8-8.07,5.85-13.07-4.3,3.56-5.26,8.24-5.85,13.07Z" />
            <path class="cls-1"
                d="M380.83,283.47c.17,.46,.35,.92,.5,1.39,.74,2.43,2.45,3.92,4.68,4.96,2.63,1.22,5.23,2.48,7.79,3.69-.45-.55-.99-1.21-1.59-1.96l.99-.4c-2.39-1.86-4.68-3.57-6.89-5.38-1.5-1.23-3.06-2.49-3.31-4.64-.03-.25,.02-.52,.04-.94,.31,.21,.6,.28,.65,.44,.56,1.62,1.82,2.63,3.16,3.48,2.9,1.82,5.92,3.43,8.79,5.29,1.69,1.1,3.19,2.49,4.76,3.78,1.29,1.06,2.56,2.16,3.92,3.31l-1.14,1.61,.75,.41q-.5,.48-2.82-.04l2.15,1.74c-.52,.79-1.18,.67-1.82,.27-3.36-2.06-6.69-4.16-10.06-6.2-1.59-.96-3.25-1.81-4.85-2.76-1.3-.77-2.63-1.5-3.81-2.44-1.75-1.39-2.22-3.38-2.23-5.5l.34-.12Zm13.09,6.97l-.27,.43c2.82,1.81,5.64,3.62,8.46,5.43l.26-.41c-2.5-2.32-5.65-3.59-8.44-5.45Z" />
            <path class="cls-1"
                d="M400.76,289.21c-1.26-2.1-2.53-4.2-3.79-6.3l.34-.22c3.4,3.04,5.32,7.24,8.4,10.61-.18-.47-.32-.96-.55-1.4-1.38-2.64-2.8-5.26-4.18-7.9-1.06-2.02-2.55-3.65-4.3-5.08-3.55-2.9-5.3-6.86-4.79-10.85l.31-.12c.49,1.48,.83,3.02,1.5,4.41,.67,1.4,1.66,2.64,2.73,3.85-.34-2.16-1.14-4.19-.44-6.44,.17,.71,.4,1.42,.52,2.14,.5,3.08,1.95,5.64,3.95,8,2.26,2.67,4.35,5.49,6.43,8.3,.57,.77,1.11,1.68,.89,3.12-1.13-1.81-2.08-3.32-3.03-4.84l-.33,.18c.46,1.03,.95,2.04,1.37,3.08,.54,1.32,.97,2.69,1.56,3.98,.46,1.01-.28,1.55-.79,2.04-.25,.24-1.01-.06-1.57-.12v.71c-1.62-2.03-3.12-4.31-5.01-6.17-1.93-1.9-4.25-3.41-6.4-5.09l.24-.35c2.24,1.52,4.47,3.05,6.71,4.57l.24-.14Z" />
            <path class="cls-1"
                d="M426.29,290.71l-.54-1.04-.69,1.67-.35-.09,.15-1.39-.2,.06c-.17-.49-.47-.98-.49-1.48-.16-3.37-.16-6.74-1.63-9.93-.81-1.75-1.42-3.66-1.75-5.56-.26-1.53,.01-3.16,.1-4.74,.02-.3,.27-.59,.41-.89l.3,.06c.08,.8,.04,1.63,.27,2.38,.67,2.16,1.31,4.34,2.21,6.41,1.31,3,1.41,6.1,1.24,9.27-.04,.79,0,1.59,.2,2.41,.12-.46,.35-.92,.36-1.38,.01-3.54,.15-7.08-.07-10.61-.36-5.65-.09-11.2,1.56-16.64,.08-.27,.18-.53,.29-.78,.03-.06,.12-.09,.31-.22-.02,.32,0,.56-.05,.79-.46,2.54-.87,5.09-1.42,7.61-.64,2.9,.31,5.66,.52,8.49,.23,3.06,.93,6.13-.14,9.22-.43,1.24-.4,2.63-.34,4.03,.19-.59,.4-1.17,.58-1.76,.68-2.26,1.58-4.49,1.95-6.81,.36-2.28,.21-4.65,.22-6.98,.02-3.09-.08-6.18,0-9.26,.02-.69,.57-1.36,.88-2.04l.35,.14c-.21,.87-.58,1.74-.61,2.62-.08,2.17-.13,4.36,.05,6.52,.22,2.61,.27,5.19,0,7.81-.32,3.09-1.36,5.96-2.23,8.88-.29,.97-.82,1.87-1.43,3.22Z" />
            <path class="cls-1"
                d="M415.76,292.38c-.88-1.34,.16-3.42-2.33-3.54l1.02,2.71c-1.05,.73-1.53,.64-1.93-.49-.19-.55-.34-1.17-.29-1.74,.11-1.35,.51-3.11-.4-4.06-3.29-3.42-6.31-6.77-7.66-11.27-.26-.88-.39-1.8-.58-2.71l.39-.15c.35,.78,.6,1.64,1.1,2.32,.47,.65,1.2,1.11,1.97,1.79,.1-.94,.17-1.53,.23-2.13l.39-.04c.12,.46,.36,.92,.34,1.38-.04,1.1,.45,1.95,1.01,2.85,1.28,2.06,2.44,4.19,3.65,6.29,.77,1.35,1.53,2.7,2.32,4.03,.81,1.37,1.24,2.79,.76,4.75Z" />
            <path class="cls-1"
                d="M379.69,295.83c.77,.26,1.57,.45,2.3,.78,3.36,1.52,6.71,3.06,10.04,4.66,.61,.29,1.05,.14,1.63,.09,.72-.06,1.49,.36,2.28,.48-4.18-2.08-7.73-4.74-9.28-9.42,3.59,5.92,9.16,9.03,15.55,10.93-.58,1.34-.63,1.35-3.79,1.13l1.4,.47,.05,.27c-.5,.02-1.07,.21-1.5,.05-1.75-.66-3.48-1.36-5.17-2.16-4.03-1.9-8.03-3.85-12.03-5.81-.58-.28-1.11-.68-1.66-1.02l.19-.45Z" />
            <path class="cls-1"
                d="M421.77,292.84c.09-1.26,.25-2.52,.27-3.78,.04-2.28-.36-4.45-1.22-6.61-.74-1.85-.96-3.9-1.51-5.84-.6-2.13-1.42-4.21-1.92-6.36-.27-1.16-.05-2.43,.24-3.7,.12,.72,.15,1.47,.38,2.15,.97,2.92,2.07,5.8,2.99,8.74,.85,2.71,2,5.37,1.93,8.29-.05,2.17-.14,4.33-.27,6.5-.02,.28-.34,.54-.52,.81l-.38-.2Z" />
            <path class="cls-1"
                d="M420.65,293.45c-.34-1.16-.77-2.31-1-3.49-.62-3.19-2.07-6.07-3.26-9.05-.36-.89-.44-1.89-.64-2.83l.41-.23c.42,.51,.89,1,1.25,1.55,2.66,4.01,3.27,8.64,3.96,13.24,.04,.27-.25,.58-.39,.88l-.33-.06Z" />
            <path class="cls-1"
                d="M411.44,292.57c-.09-.12-.2-.22-.25-.35-1.44-3.85-3.6-7.27-6.05-10.54-2.16-2.87-3.81-6.03-5.21-9.32-.09-.22-.15-.45-.2-.68-.01-.06,.06-.14,.2-.45,.54,.81,1.03,1.5,1.47,2.21,2.64,4.25,5.27,8.51,7.91,12.76,.09,.15,.24,.3,.39,.39,.26,.15,.74,.21,.79,.39,.49,1.81,.9,3.65,1.34,5.47l-.39,.11Z" />
            <path class="cls-1"
                d="M391.91,296.23c3.58,2.12,7.17,4.24,10.75,6.35l-.21,.35c-3.89-1.61-7.61-3.51-10.54-6.7Z" />
            <path class="cls-1"
                d="M395.27,305.95c2.55,1.78,5.31,2.67,8.45,2.04l.19,.27c-.31,.2-.59,.48-.93,.59-1.7,.56-3.34,.04-4.86-.6-2.04-.86-3.97-2-5.95-3.01l.21-.47,1.55,.5,1.34,.68Z" />
            <path class="cls-1"
                d="M431.39,272.36c-.15-.44-.54-1-.4-1.31,.89-2.02,1.99-3.93,3.65-5.47-.68,2.36-2.98,4-2.87,6.69l-.38,.09Z" />
            <path class="cls-1"
                d="M395.27,305.95l-1.34-.68c.13-.13,.31-.39,.4-.36,2.17,.64,4.34,1.31,6.37,1.93-.18,.15-.18,.16-2.55-.27-.96-.18-1.92-.4-2.87-.61Z" />
            <path class="cls-1"
                d="M375.79,209.03c-1.97,4.55-1.98,4.62-1.25,5.49l1.62-3.55,.21,.08c-.78,2.3-1.56,4.61-2.34,6.91l-.33-.06,.57-2.83c-.97-.54-.95-1.44-.54-2.39,.56-1.3,1.17-2.57,1.76-3.86l.3,.2Z" />
            <path class="cls-1"
                d="M372.18,216.01c.08-1.06,.01-2.15,.27-3.16,.58-2.25,1.4-4.42,2.98-6.21,.53-.6,1.12-.81,1.79-.2-1.27,.03-1.74,.97-2.24,1.83-1.4,2.4-2.23,5-2.52,7.78l-.29-.04Z" />
            <path class="cls-1" d="M350,196.24l-1.53-6.59,.57-.14,1.24,6.66-.28,.07Z" />
            <path class="cls-1"
                d="M357.94,349.93c1.4,.29,2.7,.56,4.08,.85-2.18,.94-4.22,.49-4.08-.85Z" />
        </g>
        <g>
            <g>
                <text class="cls-5" transform="translate(250.68 470.73) rotate(38.19)">
                    <tspan x="0" y="0">艾</tspan>
                </text>
                <text class="cls-5" transform="translate(326.31 519.56) rotate(12.44)">
                    <tspan x="0" y="0">伊</tspan>
                </text>
                <text class="cls-5" transform="translate(416.52 530.21) rotate(-14.07)">
                    <tspan x="0" y="0">蒔</tspan>
                </text>
                <text class="cls-5" transform="translate(501.15 499.98) rotate(-39.69)">
                    <tspan x="0" y="0">花</tspan>
                </text>
                <text class="cls-4" transform="translate(557.36 443.42) rotate(-56.29)">
                    <tspan x="0" y="0"></tspan>
                </text>
            </g>
            <text class="cls-3" transform="translate(216.03 284.16) rotate(-75.11)">
                <tspan x="0" y="0">A</tspan>
            </text>
            <text class="cls-3" transform="translate(225.67 251.9) rotate(-66.56)">
                <tspan x="0" y="0">I</tspan>
            </text>
            <text class="cls-3" transform="translate(233.83 233.42) rotate(-58.54)">
                <tspan x="0" y="0">Y</tspan>
            </text>
            <text class="cls-3" transform="translate(250.44 207.91) rotate(-50.58)">
                <tspan x="0" y="0">I</tspan>
            </text>
            <text class="cls-3" transform="translate(263.75 192.44) rotate(-44.66)">
                <tspan x="0" y="0"></tspan>
            </text>
            <text class="cls-3" transform="translate(276.06 180.43) rotate(-37.58)">
                <tspan x="0" y="0">F</tspan>
            </text>
            <text class="cls-3" transform="translate(298.29 163.95) rotate(-28.7)">
                <tspan x="0" y="0">L</tspan>
            </text>
            <text class="cls-3" transform="translate(323.31 150.44) rotate(-18.18)">
                <tspan x="0" y="0">O</tspan>
            </text>
            <text class="cls-3" transform="translate(359.75 139.45) rotate(-6.92)">
                <tspan x="0" y="0">R</tspan>
            </text>
            <text class="cls-3" transform="translate(392.6 136.07) rotate(3.45)">
                <tspan x="0" y="0">A</tspan>
            </text>
            <text class="cls-3" transform="translate(426.06 138.88) rotate(13.27)">
                <tspan x="0" y="0">L</tspan>
            </text>
            <text class="cls-3" transform="translate(453.96 146.31) rotate(20.58)">
                <tspan x="0" y="0"></tspan>
            </text>
            <text class="cls-3" transform="translate(470 152.11) rotate(29.1)">
                <tspan x="0" y="0">D</tspan>
            </text>
            <text class="cls-3" transform="translate(501.4 170.63) rotate(39.59)">
                <tspan x="0" y="0">E</tspan>
            </text>
            <text class="cls-3" transform="translate(524.34 190.48) rotate(48.58)">
                <tspan x="0" y="0">S</tspan>
            </text>
            <text class="cls-3" transform="translate(541.79 211.3) rotate(56.03)">
                <tspan x="0" y="0">I</tspan>
            </text>
            <text class="cls-3" transform="translate(553.13 227.9) rotate(65.06)">
                <tspan x="0" y="0">G</tspan>
            </text>
            <text class="cls-3" transform="translate(568.02 261.61) rotate(76.67)">
                <tspan x="0" y="0">N</tspan>
            </text>
            <path class="cls-6" d="M244.48,441.89c-28.22-33.62-45.21-76.97-45.21-124.29" />
            <path class="cls-6" d="M544.79,441.89c28.22-33.62,45.21-76.97,45.21-124.29" />
        </g>
    </g>
</svg>